<svg width="225" height="48" viewBox="0 0 225 48" fill="none" xmlns="http://www.w3.org/2000/svg">
<rect width="225" height="48" fill="white"/>
<path d="M71.9568 23.4974L65.8418 36.5699H69.2943L70.4593 33.8724H76.2518L77.4118 36.5699H80.8093L74.6768 23.4974H71.9568ZM71.5743 31.2824L73.3593 27.1449L75.1368 31.2824H71.5743Z" fill="#191B23"/>
<path d="M88.0471 28.4199C87.8221 28.0649 87.5071 27.7599 87.0921 27.5099C86.5171 27.1624 85.8672 26.9874 85.1472 26.9874C84.3522 26.9874 83.6372 27.1824 83.0072 27.5749C82.3772 27.9674 81.8846 28.5124 81.5296 29.2099C81.1746 29.9074 80.9971 30.7224 80.9971 31.6524C80.9971 32.5949 81.1746 33.4174 81.5296 34.1224C81.8846 34.8274 82.3772 35.3674 83.0072 35.7474C83.6372 36.1274 84.3497 36.3174 85.1472 36.3174C85.6247 36.3174 86.0746 36.2249 86.4971 36.0424C86.9196 35.8599 87.2846 35.6274 87.5896 35.3449C87.7721 35.1774 87.9221 35.0099 88.0496 34.8424V36.2449C88.0496 36.9299 87.8697 37.4349 87.5072 37.7599C87.1472 38.0849 86.5871 38.2474 85.8271 38.2474C85.3121 38.2474 84.7646 38.1799 84.1846 38.0449C83.6046 37.9099 83.0371 37.7149 82.4871 37.4574L81.9922 39.8824C83.1297 40.4199 84.4471 40.6899 85.9396 40.6899C87.7146 40.6899 89.0597 40.2924 89.9772 39.4949C90.8947 38.6999 91.3546 37.5299 91.3546 35.9874V27.2474H88.0496V28.4199H88.0471ZM87.5522 33.2549C87.2222 33.6399 86.7621 33.8324 86.1746 33.8324C85.5996 33.8324 85.1396 33.6374 84.7971 33.2449C84.4546 32.8524 84.2821 32.3199 84.2821 31.6474C84.2821 30.9749 84.4497 30.4474 84.7872 30.0674C85.1247 29.6874 85.5846 29.4974 86.1721 29.4974C86.7721 29.4974 87.2346 29.6899 87.5571 30.0749C87.8821 30.4599 88.0446 30.9849 88.0446 31.6449C88.0471 32.3349 87.8822 32.8699 87.5522 33.2549Z" fill="#191B23"/>
<path d="M99.9039 27.5725C99.2489 27.18 98.4739 26.985 97.5814 26.985C96.6639 26.985 95.8564 27.1925 95.1589 27.61C94.4614 28.025 93.9139 28.6025 93.5164 29.335C93.1189 30.07 92.9189 30.9125 92.9189 31.8675C92.9189 32.8575 93.1264 33.7175 93.5439 34.4475C93.9589 35.175 94.5564 35.735 95.3339 36.1275C96.1114 36.52 97.0389 36.715 98.1164 36.715C98.7764 36.715 99.4389 36.62 100.099 36.43C100.759 36.24 101.321 35.9675 101.789 35.6125L100.944 33.41C100.576 33.68 100.156 33.89 99.6864 34.0425C99.2139 34.195 98.7464 34.2725 98.2814 34.2725C97.5114 34.2725 96.9464 34.0675 96.5914 33.6575C96.3214 33.345 96.1539 32.87 96.0889 32.235H101.951V31.795C101.951 30.815 101.774 29.965 101.419 29.2425C101.064 28.5225 100.559 27.965 99.9039 27.5725ZM97.6739 29.2625C98.1514 29.2625 98.5164 29.425 98.7664 29.75C98.9439 29.98 99.0589 30.2975 99.1089 30.695H96.1364C96.2039 30.3475 96.3139 30.06 96.4714 29.84C96.7464 29.455 97.1464 29.2625 97.6739 29.2625Z" fill="#191B23"/>
<path d="M110.029 26.985C109.307 26.985 108.667 27.1525 108.112 27.49C107.642 27.775 107.254 28.16 106.937 28.64L106.762 27.2425H103.642C103.702 27.6825 103.742 28.13 103.762 28.5825C103.779 29.035 103.789 29.4825 103.789 29.9225V36.5675H107.112V31.3725C107.112 30.82 107.264 30.3775 107.572 30.04C107.877 29.7025 108.282 29.535 108.784 29.535C109.199 29.535 109.507 29.66 109.702 29.9125C109.897 30.1625 109.997 30.5775 109.997 31.1525V36.5675H113.319V31.005C113.314 28.325 112.219 26.985 110.029 26.985Z" fill="#191B23"/>
<path d="M120.392 29.52C120.797 29.52 121.22 29.6 121.66 29.7575C122.1 29.9175 122.487 30.13 122.817 30.4L123.662 28.105C123.27 27.7625 122.745 27.49 122.085 27.2875C121.425 27.085 120.75 26.985 120.065 26.985C119.025 26.985 118.115 27.19 117.337 27.6C116.56 28.01 115.955 28.585 115.52 29.325C115.085 30.065 114.867 30.93 114.867 31.9225C114.867 32.9025 115.067 33.7525 115.465 34.475C115.862 35.1975 116.44 35.75 117.2 36.135C117.957 36.52 118.865 36.7125 119.917 36.7125C120.665 36.7125 121.37 36.615 122.037 36.42C122.705 36.225 123.245 35.9475 123.662 35.595L122.817 33.3375C122.487 33.62 122.102 33.835 121.66 33.99C121.22 34.1425 120.802 34.22 120.412 34.22C119.727 34.22 119.197 34.0275 118.825 33.6425C118.452 33.2575 118.265 32.66 118.265 31.8525C118.265 31.0575 118.455 30.47 118.835 30.09C119.21 29.71 119.73 29.52 120.392 29.52Z" fill="#191B23"/>
<path d="M132.157 27.2424L129.987 32.6274L127.897 27.2424H124.445L128.242 35.9249L128.007 36.4399C127.86 36.7449 127.67 37.0124 127.437 37.2399C127.205 37.4649 126.902 37.6574 126.527 37.8174C126.152 37.9774 125.68 38.1124 125.105 38.2224L125.875 40.7549C126.645 40.6699 127.355 40.4924 128.005 40.2224C128.652 39.9524 129.24 39.5549 129.767 39.0299C130.292 38.5024 130.752 37.7949 131.145 36.8999L135.422 27.2424H132.157Z" fill="#191B23"/>
<path d="M151.855 24.5799C151.048 23.8574 149.885 23.4974 148.368 23.4974H142.143V36.5699H145.595V31.4674H148.368C149.86 31.4674 151.018 31.1074 151.838 30.3849C152.658 29.6624 153.068 28.6949 153.068 27.4849C153.068 26.2699 152.665 25.3024 151.855 24.5799ZM149.388 28.5374C149.075 28.7749 148.583 28.8949 147.91 28.8949H145.598V26.1049H147.91C148.595 26.1049 149.09 26.2249 149.398 26.4624C149.703 26.7024 149.858 27.0524 149.858 27.5174C149.855 27.9574 149.7 28.2974 149.388 28.5374Z" fill="#191B23"/>
<path d="M160.251 28.4275C160.028 28.065 159.713 27.76 159.306 27.5075C158.736 27.16 158.096 26.985 157.388 26.985C156.593 26.985 155.886 27.1925 155.268 27.61C154.651 28.025 154.163 28.605 153.808 29.345C153.453 30.085 153.276 30.945 153.276 31.925C153.276 32.8925 153.451 33.7375 153.798 34.4575C154.146 35.18 154.633 35.7375 155.258 36.1275C155.883 36.52 156.591 36.715 157.388 36.715C158.098 36.715 158.738 36.55 159.306 36.22C159.716 35.9825 160.028 35.68 160.251 35.3175V36.57H163.518V27.2425H160.251V28.4275ZM159.763 33.6325C159.438 34.0375 158.988 34.24 158.413 34.24C157.813 34.24 157.356 34.04 157.036 33.6425C156.718 33.245 156.558 32.6725 156.558 31.925C156.558 31.155 156.723 30.5575 157.053 30.135C157.383 29.7125 157.836 29.5025 158.411 29.5025C158.998 29.5025 159.451 29.705 159.768 30.1075C160.086 30.51 160.246 31.105 160.246 31.8875C160.251 32.6475 160.088 33.2275 159.763 33.6325Z" fill="#191B23"/>
<path d="M171.438 27.0225C170.728 27.0225 170.095 27.2375 169.538 27.665C169.165 27.9525 168.89 28.335 168.713 28.8075L168.518 27.2425H165.398C165.458 27.6825 165.5 28.13 165.518 28.5825C165.535 29.035 165.545 29.4825 165.545 29.9225V36.5675H168.868V31.8875C168.868 31.4225 168.953 31.0425 169.125 30.75C169.298 30.455 169.535 30.24 169.84 30.0975C170.145 29.9575 170.52 29.8875 170.96 29.8875C171.45 29.8875 171.958 30.01 172.483 30.255V27.225C172.36 27.1625 172.213 27.115 172.043 27.0775C171.873 27.04 171.67 27.0225 171.438 27.0225Z" fill="#191B23"/>
<path d="M179.98 34.0349C179.735 34.0349 179.508 33.9899 179.3 33.8974C179.093 33.8049 178.925 33.6599 178.795 33.4574C178.668 33.2549 178.603 33.0024 178.603 32.6949V29.6824H180.843V27.2399H178.603V24.0649L175.28 25.1299V27.2424H173.535V29.6849H175.28V32.6974C175.28 33.9349 175.603 34.9124 176.245 35.6349C176.888 36.3574 177.85 36.7174 179.138 36.7174C179.443 36.7174 179.738 36.6999 180.018 36.6624C180.298 36.6249 180.58 36.5524 180.863 36.4424V33.9274C180.68 33.9649 180.518 33.9924 180.375 34.0099C180.235 34.0274 180.103 34.0349 179.98 34.0349Z" fill="#191B23"/>
<path d="M188.898 26.985C188.176 26.985 187.536 27.1525 186.978 27.49C186.508 27.775 186.121 28.16 185.803 28.64L185.628 27.2425H182.508C182.571 27.6825 182.608 28.13 182.628 28.5825C182.646 29.035 182.656 29.4825 182.656 29.9225V36.5675H185.978V31.3725C185.978 30.82 186.131 30.3775 186.438 30.04C186.743 29.7025 187.148 29.535 187.651 29.535C188.066 29.535 188.373 29.66 188.568 29.9125C188.763 30.1625 188.863 30.5775 188.863 31.1525V36.5675H192.186V31.005C192.183 28.325 191.088 26.985 188.898 26.985Z" fill="#191B23"/>
<path d="M200.468 27.5725C199.813 27.18 199.038 26.985 198.145 26.985C197.228 26.985 196.42 27.1925 195.723 27.61C195.025 28.025 194.478 28.6025 194.08 29.335C193.683 30.07 193.483 30.9125 193.483 31.8675C193.483 32.8575 193.69 33.7175 194.108 34.4475C194.523 35.175 195.12 35.735 195.898 36.1275C196.675 36.52 197.603 36.715 198.68 36.715C199.34 36.715 200.003 36.62 200.663 36.43C201.323 36.24 201.888 35.9675 202.353 35.6125L201.508 33.41C201.14 33.68 200.72 33.89 200.25 34.0425C199.778 34.195 199.31 34.2725 198.845 34.2725C198.075 34.2725 197.51 34.0675 197.155 33.6575C196.885 33.345 196.718 32.87 196.653 32.235H202.515V31.795C202.515 30.815 202.338 29.965 201.983 29.2425C201.628 28.5225 201.123 27.965 200.468 27.5725ZM198.238 29.2625C198.715 29.2625 199.08 29.425 199.33 29.75C199.508 29.98 199.623 30.2975 199.673 30.695H196.7C196.768 30.3475 196.878 30.06 197.035 29.84C197.31 29.455 197.71 29.2625 198.238 29.2625Z" fill="#191B23"/>
<path d="M209.992 27.0225C209.282 27.0225 208.65 27.2375 208.092 27.665C207.72 27.9525 207.445 28.335 207.267 28.8075L207.072 27.2425H203.952C204.012 27.6825 204.055 28.13 204.072 28.5825C204.09 29.035 204.1 29.4825 204.1 29.9225V36.5675H207.422V31.8875C207.422 31.4225 207.507 31.0425 207.68 30.75C207.852 30.455 208.09 30.24 208.395 30.0975C208.7 29.9575 209.075 29.8875 209.515 29.8875C210.005 29.8875 210.512 30.01 211.037 30.255V27.225C210.915 27.1625 210.767 27.115 210.597 27.0775C210.427 27.04 210.225 27.0225 209.992 27.0225Z" fill="#191B23"/>
<path d="M219.673 31.925C219.238 31.4725 218.525 31.135 217.533 30.915L215.973 30.5675C215.63 30.4825 215.398 30.4 215.275 30.32C215.153 30.24 215.093 30.1325 215.093 30C215.093 29.78 215.2 29.6125 215.413 29.495C215.628 29.38 215.91 29.32 216.268 29.32C216.72 29.32 217.205 29.405 217.718 29.5775C218.233 29.75 218.733 29.995 219.223 30.3125L220.105 28.11C219.555 27.7675 218.955 27.495 218.305 27.2925C217.655 27.09 216.99 26.99 216.305 26.99C215.485 26.99 214.76 27.1225 214.13 27.385C213.5 27.6475 213.008 28.0125 212.653 28.4775C212.298 28.9425 212.12 29.475 212.12 30.075C212.12 30.8225 212.33 31.405 212.753 31.8275C213.175 32.25 213.863 32.56 214.818 32.755L216.323 33.105C216.75 33.2025 217.043 33.3 217.195 33.3975C217.348 33.495 217.425 33.63 217.425 33.8025C217.425 33.9975 217.32 34.1525 217.113 34.2625C216.905 34.3725 216.61 34.4275 216.23 34.4275C215.63 34.4275 215.01 34.3325 214.368 34.1425C213.725 33.9525 213.153 33.6875 212.653 33.345L211.808 35.6025C212.885 36.35 214.353 36.7225 216.213 36.7225C217.498 36.7225 218.505 36.46 219.233 35.9325C219.96 35.405 220.325 34.6825 220.325 33.765C220.323 32.99 220.105 32.3775 219.673 31.925Z" fill="#191B23"/>
<path d="M55.3175 11.5324C55.305 11.4099 55.2825 11.2899 55.265 11.1674C55.245 11.0199 55.2275 10.8749 55.1975 10.7274C55.17 10.5874 55.1325 10.4524 55.0975 10.3174C55.065 10.1924 55.0375 10.0649 55 9.93992C54.96 9.80742 54.91 9.67743 54.8625 9.54743C54.8175 9.42243 54.7775 9.29743 54.725 9.17243C54.675 9.04993 54.615 8.93243 54.5575 8.81243C54.4975 8.68493 54.4425 8.55743 54.375 8.43493C54.3125 8.31993 54.245 8.21243 54.1775 8.09993C54.105 7.97743 54.0375 7.85492 53.9575 7.73742C53.875 7.61492 53.7825 7.49743 53.695 7.37993C53.62 7.28243 53.5525 7.17993 53.475 7.08493C53.1275 6.66243 52.74 6.27242 52.315 5.92492C52.22 5.84742 52.1175 5.77743 52.02 5.70493C51.9025 5.61493 51.785 5.52493 51.6625 5.44243C51.545 5.36243 51.4225 5.29492 51.3 5.22242C51.1875 5.15492 51.08 5.08493 50.965 5.02493C50.8425 4.95993 50.715 4.90242 50.59 4.84492C50.47 4.78742 50.3525 4.72742 50.23 4.67742C50.1075 4.62742 49.9825 4.58492 49.8575 4.54242C49.725 4.49492 49.5975 4.44492 49.4625 4.40492C49.3375 4.36742 49.21 4.33992 49.085 4.30742C48.9475 4.27242 48.8125 4.23492 48.675 4.20742C48.53 4.17742 48.3825 4.16242 48.235 4.13992C48.1125 4.12242 47.995 4.09993 47.87 4.08743C47.5975 4.05993 47.325 4.04492 47.05 4.04492H14.305C9.7175 4.04492 6 7.76493 6 12.3499C6 16.9374 9.72 20.6549 14.305 20.6549H27L18.0225 29.6324C14.78 32.8749 14.78 38.1349 18.0225 41.3799C21.2675 44.6249 26.525 44.6249 29.77 41.3799L52.9275 18.2224C53.12 18.0299 53.305 17.8249 53.4775 17.6124C53.555 17.5174 53.625 17.4149 53.6975 17.3174C53.785 17.1999 53.8775 17.0824 53.96 16.9599C54.04 16.8424 54.1075 16.7199 54.18 16.5974C54.2475 16.4874 54.315 16.3774 54.3775 16.2624C54.445 16.1374 54.5 16.01 54.56 15.885C54.6175 15.765 54.675 15.6475 54.7275 15.5249C54.7775 15.4024 54.82 15.2749 54.865 15.1499C54.9125 15.0199 54.9625 14.8899 55.0025 14.7574C55.04 14.6324 55.0675 14.5049 55.1 14.3799C55.135 14.2424 55.1725 14.1099 55.2 13.9699C55.23 13.8249 55.245 13.6774 55.2675 13.5299C55.285 13.4074 55.3075 13.2899 55.32 13.1649C55.3475 12.8924 55.3625 12.6199 55.3625 12.3449C55.36 12.0774 55.345 11.8049 55.3175 11.5324ZM49.9 15.6449C48.095 17.4499 45.17 17.4499 43.365 15.6449C41.56 13.8399 41.56 10.9149 43.365 9.10993C45.17 7.30493 48.095 7.30493 49.9 9.10993C51.705 10.9149 51.705 13.8399 49.9 15.6449Z" fill="url(#paint0_linear_8_2)"/>
<path d="M73.9924 11.125C73.5549 10.8875 73.0574 10.685 72.4974 10.5225C71.9374 10.36 71.3549 10.2075 70.7499 10.0675C70.1799 9.92753 69.6724 9.77254 69.2299 9.60504C68.7874 9.43504 68.4424 9.21254 68.1999 8.93254C67.9549 8.65254 67.8324 8.28504 67.8324 7.83254C67.8324 7.09754 68.1049 6.52754 68.6549 6.12004C69.2024 5.71254 69.9599 5.50754 70.9274 5.50754C71.6374 5.50754 72.2974 5.62504 72.9024 5.85754C73.5074 6.09004 74.0974 6.45754 74.6674 6.95754L75.2274 5.85754C74.8774 5.52004 74.4774 5.23504 74.0299 5.00004C73.5824 4.76754 73.0949 4.59004 72.5699 4.46754C72.0449 4.34504 71.4974 4.28503 70.9274 4.28503C70.0074 4.28503 69.2074 4.43754 68.5324 4.74004C67.8574 5.04254 67.3324 5.46504 66.9599 6.00754C66.5874 6.55004 66.3999 7.17504 66.3999 7.88754C66.3999 8.48254 66.5174 8.97754 66.7499 9.37254C66.9824 9.77004 67.3074 10.095 67.7199 10.3525C68.1324 10.61 68.6074 10.8225 69.1449 10.99C69.6799 11.16 70.2449 11.3075 70.8399 11.435C71.4349 11.575 71.9674 11.7225 72.4399 11.88C72.9124 12.0375 73.2849 12.2475 73.5574 12.51C73.8299 12.7725 73.9674 13.12 73.9674 13.55C73.9674 14.2601 73.6924 14.8126 73.1449 15.2026C72.5974 15.5926 71.8274 15.7876 70.8374 15.7876C69.9874 15.7876 69.2449 15.6776 68.6099 15.4551C67.9749 15.2326 67.3424 14.8601 66.7124 14.3376L66.1699 15.4376C66.5549 15.7876 66.9849 16.0826 67.4624 16.3201C67.9399 16.5601 68.4574 16.7326 69.0174 16.8451C69.5774 16.9576 70.1774 17.0101 70.8174 17.0101C71.7599 17.0101 72.5774 16.8651 73.2649 16.5726C73.9524 16.2826 74.4824 15.8726 74.8549 15.3501C75.2274 14.8251 75.4149 14.2076 75.4149 13.4975C75.4149 12.915 75.2874 12.435 75.0299 12.055C74.7774 11.6725 74.4299 11.365 73.9924 11.125Z" fill="#191B23"/>
<path d="M83.2101 8.38255C82.6501 8.04005 81.9801 7.86755 81.2001 7.86755C80.3851 7.86755 79.6651 8.06005 79.0426 8.44505C78.4201 8.83005 77.9326 9.36505 77.5826 10.0526C77.2326 10.7401 77.0576 11.5376 77.0576 12.4476C77.0576 13.3926 77.2351 14.2051 77.5901 14.8851C77.9451 15.5676 78.4526 16.0876 79.1101 16.4501C79.7676 16.8126 80.5526 16.9926 81.4601 16.9926C82.0901 16.9926 82.7026 16.8876 83.3051 16.6776C83.9051 16.4676 84.3976 16.1826 84.7826 15.8201L84.3101 14.7901C83.8801 15.1401 83.4276 15.4001 82.9551 15.5676C82.4826 15.7376 81.9901 15.8201 81.4776 15.8201C80.5001 15.8201 79.7551 15.5301 79.2501 14.9451C78.7551 14.3751 78.5026 13.5351 78.4926 12.4276H84.9401V12.1651C84.9401 11.2676 84.7926 10.5001 84.4951 9.85755C84.1976 9.21755 83.7701 8.72505 83.2101 8.38255ZM79.2151 9.86755C79.6976 9.26755 80.3651 8.96755 81.2176 8.96755C82.0326 8.96755 82.6526 9.24255 83.0776 9.79005C83.4076 10.2151 83.6026 10.7875 83.6601 11.5025H78.5501C78.6526 10.84 78.8726 10.2951 79.2151 9.86755Z" fill="#191B23"/>
<path d="M96.5921 7.86499C95.7996 7.86499 95.1222 8.07499 94.5572 8.49499C94.1597 8.78999 93.8597 9.1575 93.6497 9.595C93.4872 9.135 93.2546 8.76749 92.9496 8.49499C92.4771 8.07499 91.8171 7.86499 90.9671 7.86499C90.2571 7.86499 89.6421 8.05249 89.1221 8.42499C88.7096 8.72249 88.3971 9.11749 88.1796 9.61249L88.0471 8.07499H86.7021C86.7596 8.48249 86.7972 8.89499 86.8147 9.30749C86.8322 9.71999 86.8397 10.1325 86.8397 10.54V16.8675H88.2546V11.85C88.2546 10.9875 88.4672 10.3075 88.8922 9.805C89.3172 9.305 89.9022 9.05249 90.6497 9.05249C91.2797 9.05249 91.7421 9.24249 92.0396 9.61999C92.3371 9.99999 92.4846 10.595 92.4846 11.4125V16.865H93.8997V11.8475C93.8997 10.985 94.1121 10.305 94.5371 9.80249C94.9621 9.30249 95.5422 9.04999 96.2772 9.04999C96.9072 9.04999 97.3672 9.24 97.6572 9.6175C97.9472 9.9975 98.0947 10.5925 98.0947 11.41V16.8625H99.5097V11.34C99.5097 10.175 99.2647 9.305 98.7747 8.7275C98.2872 8.155 97.5596 7.86499 96.5921 7.86499Z" fill="#191B23"/>
<path d="M106.043 7.86499C105.368 7.86499 104.758 8.05999 104.215 8.44999C103.798 8.74999 103.493 9.16499 103.3 9.68999L103.158 8.0725H101.812C101.87 8.48 101.908 8.8925 101.925 9.305C101.943 9.7175 101.95 10.13 101.95 10.5375V16.865H103.365V11.8475C103.365 11.3925 103.45 10.96 103.618 10.545C103.785 10.1325 104.055 9.79 104.423 9.5225C104.79 9.255 105.275 9.11999 105.883 9.11999C106.233 9.11999 106.54 9.1675 106.81 9.26L106.845 7.9675C106.728 7.9325 106.603 7.9075 106.47 7.89C106.338 7.875 106.195 7.86499 106.043 7.86499Z" fill="#191B23"/>
<path d="M114.223 13.04C114.223 13.88 113.983 14.55 113.505 15.05C113.028 15.55 112.398 15.8025 111.618 15.8025C110.953 15.8025 110.458 15.615 110.133 15.2425C109.805 14.87 109.643 14.2875 109.643 13.495V8.07751H108.228V13.53C108.228 14.6725 108.493 15.535 109.023 16.1175C109.553 16.7 110.343 16.9925 111.39 16.9925C112.1 16.9925 112.733 16.8125 113.288 16.45C113.7 16.18 114.023 15.8175 114.258 15.36V16.87H115.638V8.07751H114.223V13.04Z" fill="#191B23"/>
<path d="M122.368 12.095L120.883 11.7275C120.405 11.61 120.058 11.4475 119.843 11.2375C119.628 11.0275 119.52 10.7425 119.52 10.38C119.52 9.95999 119.693 9.62749 120.035 9.38249C120.378 9.13749 120.865 9.01499 121.495 9.01499C121.973 9.01499 122.43 9.09999 122.868 9.26749C123.305 9.43749 123.733 9.69499 124.153 10.045L124.625 9.01499C124.253 8.64249 123.793 8.35749 123.245 8.15749C122.698 7.95999 122.115 7.85999 121.498 7.85999C120.81 7.85999 120.215 7.96999 119.715 8.19249C119.215 8.41499 118.823 8.71999 118.545 9.10999C118.265 9.49999 118.125 9.95249 118.125 10.465C118.125 11.0475 118.325 11.5475 118.728 11.9675C119.13 12.3875 119.698 12.6775 120.433 12.8425L121.918 13.1925C122.453 13.32 122.838 13.4875 123.07 13.69C123.303 13.895 123.42 14.17 123.42 14.52C123.42 14.9525 123.248 15.28 122.905 15.5075C122.56 15.735 122.058 15.8475 121.393 15.8475C120.788 15.8475 120.235 15.7625 119.74 15.595C119.245 15.425 118.765 15.16 118.298 14.8L117.825 15.8475C118.688 16.605 119.858 16.9825 121.338 16.9825C122.398 16.9825 123.238 16.755 123.855 16.3C124.473 15.845 124.783 15.24 124.783 14.4825C124.783 13.865 124.588 13.355 124.198 12.9525C123.805 12.56 123.195 12.27 122.368 12.095Z" fill="#191B23"/>
<path d="M131.423 7.865C130.678 7.865 130.018 8.04751 129.448 8.41501C129.028 8.68501 128.695 9.05 128.45 9.5075V4H127.035V16.865H128.45V11.83C128.45 10.98 128.695 10.3025 129.185 9.8025C129.675 9.3025 130.328 9.05 131.143 9.05C131.843 9.05 132.355 9.24 132.68 9.6175C133.005 9.9975 133.17 10.5925 133.17 11.41V16.8625H134.585V11.34C134.585 9.025 133.53 7.865 131.423 7.865Z" fill="#191B23"/>
<defs>
<linearGradient id="paint0_linear_8_2" x1="5.68615" y1="30.4555" x2="52.9513" y2="7.46157" gradientUnits="userSpaceOnUse">
<stop stop-color="#FFFBF9" stop-opacity="0"/>
<stop offset="0.5439" stop-color="#F9A273" stop-opacity="0.6561"/>
<stop offset="0.8291" stop-color="#F67732"/>
</linearGradient>
</defs>
</svg>
