<svg width="215" height="40" viewBox="0 0 215 40" fill="none" xmlns="http://www.w3.org/2000/svg">
  <g clip-path="url(#clip0_1060_4135)">
    <path
      d="M65.9871 19.46L59.8721 32.5325H63.3246L64.4896 29.835H70.2821L71.4421 32.5325H74.8396L68.7071 19.46H65.9871ZM65.6046 27.245L67.3896 23.1075L69.1671 27.245H65.6046Z"
      fill="#191B23" />
    <path
      d="M82.0773 24.3825C81.8523 24.0275 81.5373 23.7225 81.1223 23.4725C80.5473 23.125 79.8974 22.95 79.1774 22.95C78.3824 22.95 77.6674 23.145 77.0374 23.5375C76.4074 23.93 75.9148 24.475 75.5598 25.1725C75.2048 25.87 75.0273 26.685 75.0273 27.615C75.0273 28.5575 75.2048 29.38 75.5598 30.085C75.9148 30.79 76.4074 31.33 77.0374 31.71C77.6674 32.09 78.3799 32.28 79.1774 32.28C79.6549 32.28 80.1048 32.1875 80.5273 32.005C80.9498 31.8225 81.3148 31.59 81.6198 31.3075C81.8023 31.14 81.9523 30.9725 82.0798 30.805V32.2075C82.0798 32.8925 81.8999 33.3975 81.5374 33.7225C81.1774 34.0475 80.6173 34.21 79.8573 34.21C79.3423 34.21 78.7948 34.1425 78.2148 34.0075C77.6348 33.8725 77.0673 33.6775 76.5173 33.42L76.0224 35.845C77.1599 36.3825 78.4773 36.6525 79.9698 36.6525C81.7448 36.6525 83.0899 36.255 84.0074 35.4575C84.9249 34.6625 85.3848 33.4925 85.3848 31.95V23.21H82.0798V24.3825H82.0773ZM81.5824 29.2175C81.2524 29.6025 80.7923 29.795 80.2048 29.795C79.6298 29.795 79.1698 29.6 78.8273 29.2075C78.4848 28.815 78.3123 28.2825 78.3123 27.61C78.3123 26.9375 78.4799 26.41 78.8174 26.03C79.1549 25.65 79.6148 25.46 80.2023 25.46C80.8023 25.46 81.2648 25.6525 81.5873 26.0375C81.9123 26.4225 82.0748 26.9475 82.0748 27.6075C82.0773 28.2975 81.9124 28.8325 81.5824 29.2175Z"
      fill="#191B23" />
    <path
      d="M93.9342 23.535C93.2792 23.1425 92.5042 22.9475 91.6117 22.9475C90.6942 22.9475 89.8867 23.155 89.1892 23.5725C88.4917 23.9875 87.9442 24.565 87.5467 25.2975C87.1492 26.0325 86.9492 26.875 86.9492 27.83C86.9492 28.82 87.1567 29.68 87.5742 30.41C87.9892 31.1375 88.5867 31.6975 89.3642 32.09C90.1417 32.4825 91.0692 32.6775 92.1467 32.6775C92.8067 32.6775 93.4692 32.5825 94.1292 32.3925C94.7892 32.2025 95.3517 31.93 95.8192 31.575L94.9742 29.3725C94.6067 29.6425 94.1867 29.8525 93.7167 30.005C93.2442 30.1575 92.7767 30.235 92.3117 30.235C91.5417 30.235 90.9767 30.03 90.6217 29.62C90.3517 29.3075 90.1842 28.8325 90.1192 28.1975H95.9817V27.7575C95.9817 26.7775 95.8042 25.9275 95.4492 25.205C95.0942 24.485 94.5892 23.9275 93.9342 23.535ZM91.7042 25.225C92.1817 25.225 92.5467 25.3875 92.7967 25.7125C92.9742 25.9425 93.0892 26.26 93.1392 26.6575H90.1667C90.2342 26.31 90.3442 26.0225 90.5017 25.8025C90.7767 25.4175 91.1767 25.225 91.7042 25.225Z"
      fill="#191B23" />
    <path
      d="M104.059 22.9475C103.337 22.9475 102.697 23.115 102.142 23.4525C101.672 23.7375 101.284 24.1225 100.967 24.6025L100.792 23.205H97.6719C97.7319 23.645 97.7719 24.0925 97.7919 24.545C97.8094 24.9975 97.8194 25.445 97.8194 25.885V32.53H101.142V27.335C101.142 26.7825 101.294 26.34 101.602 26.0025C101.907 25.665 102.312 25.4975 102.814 25.4975C103.229 25.4975 103.537 25.6225 103.732 25.875C103.927 26.125 104.027 26.54 104.027 27.115V32.53H107.349V26.9675C107.344 24.2875 106.249 22.9475 104.059 22.9475Z"
      fill="#191B23" />
    <path
      d="M114.422 25.4825C114.827 25.4825 115.25 25.5625 115.69 25.72C116.13 25.88 116.517 26.0925 116.847 26.3625L117.692 24.0675C117.3 23.725 116.775 23.4525 116.115 23.25C115.455 23.0475 114.78 22.9475 114.095 22.9475C113.055 22.9475 112.145 23.1525 111.367 23.5625C110.59 23.9725 109.985 24.5475 109.55 25.2875C109.115 26.0275 108.897 26.8925 108.897 27.885C108.897 28.865 109.097 29.715 109.495 30.4375C109.892 31.16 110.47 31.7125 111.23 32.0975C111.987 32.4825 112.895 32.675 113.947 32.675C114.695 32.675 115.4 32.5775 116.067 32.3825C116.735 32.1875 117.275 31.91 117.692 31.5575L116.847 29.3C116.517 29.5825 116.132 29.7975 115.69 29.9525C115.25 30.105 114.832 30.1825 114.442 30.1825C113.757 30.1825 113.227 29.99 112.855 29.605C112.482 29.22 112.295 28.6225 112.295 27.815C112.295 27.02 112.485 26.4325 112.865 26.0525C113.24 25.6725 113.76 25.4825 114.422 25.4825Z"
      fill="#191B23" />
    <path
      d="M126.187 23.205L124.017 28.59L121.927 23.205H118.475L122.272 31.8875L122.037 32.4025C121.89 32.7075 121.7 32.975 121.467 33.2025C121.235 33.4275 120.932 33.62 120.557 33.78C120.182 33.94 119.71 34.075 119.135 34.185L119.905 36.7175C120.675 36.6325 121.385 36.455 122.035 36.185C122.682 35.915 123.27 35.5175 123.797 34.9925C124.322 34.465 124.782 33.7575 125.175 32.8625L129.452 23.205H126.187Z"
      fill="#191B23" />
    <path
      d="M145.885 20.5425C145.078 19.82 143.915 19.46 142.398 19.46H136.173V32.5325H139.625V27.43H142.398C143.89 27.43 145.048 27.07 145.868 26.3475C146.688 25.625 147.098 24.6575 147.098 23.4475C147.098 22.2325 146.695 21.265 145.885 20.5425ZM143.418 24.5C143.105 24.7375 142.613 24.8575 141.94 24.8575H139.628V22.0675H141.94C142.625 22.0675 143.12 22.1875 143.428 22.425C143.733 22.665 143.888 23.015 143.888 23.48C143.885 23.92 143.73 24.26 143.418 24.5Z"
      fill="#191B23" />
    <path
      d="M154.281 24.39C154.058 24.0275 153.743 23.7225 153.336 23.47C152.766 23.1225 152.126 22.9475 151.418 22.9475C150.623 22.9475 149.916 23.155 149.298 23.5725C148.681 23.9875 148.193 24.5675 147.838 25.3075C147.483 26.0475 147.306 26.9075 147.306 27.8875C147.306 28.855 147.481 29.7 147.828 30.42C148.176 31.1425 148.663 31.7 149.288 32.09C149.913 32.4825 150.621 32.6775 151.418 32.6775C152.128 32.6775 152.768 32.5125 153.336 32.1825C153.746 31.945 154.058 31.6425 154.281 31.28V32.5325H157.548V23.205H154.281V24.39ZM153.793 29.595C153.468 30 153.018 30.2025 152.443 30.2025C151.843 30.2025 151.386 30.0025 151.066 29.605C150.748 29.2075 150.588 28.635 150.588 27.8875C150.588 27.1175 150.753 26.52 151.083 26.0975C151.413 25.675 151.866 25.465 152.441 25.465C153.028 25.465 153.481 25.6675 153.798 26.07C154.116 26.4725 154.276 27.0675 154.276 27.85C154.281 28.61 154.118 29.19 153.793 29.595Z"
      fill="#191B23" />
    <path
      d="M165.468 22.985C164.758 22.985 164.125 23.2 163.568 23.6275C163.195 23.915 162.92 24.2975 162.743 24.77L162.548 23.205H159.428C159.488 23.645 159.53 24.0925 159.548 24.545C159.565 24.9975 159.575 25.445 159.575 25.885V32.53H162.898V27.85C162.898 27.385 162.983 27.005 163.155 26.7125C163.328 26.4175 163.565 26.2025 163.87 26.06C164.175 25.92 164.55 25.85 164.99 25.85C165.48 25.85 165.988 25.9725 166.513 26.2175V23.1875C166.39 23.125 166.243 23.0775 166.073 23.04C165.903 23.0025 165.7 22.985 165.468 22.985Z"
      fill="#191B23" />
    <path
      d="M174.01 29.9975C173.765 29.9975 173.538 29.9525 173.33 29.86C173.123 29.7675 172.955 29.6225 172.825 29.42C172.698 29.2175 172.633 28.965 172.633 28.6575V25.645H174.873V23.2025H172.633V20.0275L169.31 21.0925V23.205H167.565V25.6475H169.31V28.66C169.31 29.8975 169.633 30.875 170.275 31.5975C170.918 32.32 171.88 32.68 173.168 32.68C173.473 32.68 173.768 32.6625 174.048 32.625C174.328 32.5875 174.61 32.515 174.893 32.405V29.89C174.71 29.9275 174.548 29.955 174.405 29.9725C174.265 29.99 174.133 29.9975 174.01 29.9975Z"
      fill="#191B23" />
    <path
      d="M182.928 22.9475C182.206 22.9475 181.566 23.115 181.008 23.4525C180.538 23.7375 180.151 24.1225 179.833 24.6025L179.658 23.205H176.538C176.601 23.645 176.638 24.0925 176.658 24.545C176.676 24.9975 176.686 25.445 176.686 25.885V32.53H180.008V27.335C180.008 26.7825 180.161 26.34 180.468 26.0025C180.773 25.665 181.178 25.4975 181.681 25.4975C182.096 25.4975 182.403 25.6225 182.598 25.875C182.793 26.125 182.893 26.54 182.893 27.115V32.53H186.216V26.9675C186.213 24.2875 185.118 22.9475 182.928 22.9475Z"
      fill="#191B23" />
    <path
      d="M194.498 23.535C193.843 23.1425 193.068 22.9475 192.175 22.9475C191.258 22.9475 190.45 23.155 189.753 23.5725C189.055 23.9875 188.508 24.565 188.11 25.2975C187.713 26.0325 187.513 26.875 187.513 27.83C187.513 28.82 187.72 29.68 188.138 30.41C188.553 31.1375 189.15 31.6975 189.928 32.09C190.705 32.4825 191.633 32.6775 192.71 32.6775C193.37 32.6775 194.033 32.5825 194.693 32.3925C195.353 32.2025 195.918 31.93 196.383 31.575L195.538 29.3725C195.17 29.6425 194.75 29.8525 194.28 30.005C193.808 30.1575 193.34 30.235 192.875 30.235C192.105 30.235 191.54 30.03 191.185 29.62C190.915 29.3075 190.748 28.8325 190.683 28.1975H196.545V27.7575C196.545 26.7775 196.368 25.9275 196.013 25.205C195.658 24.485 195.153 23.9275 194.498 23.535ZM192.268 25.225C192.745 25.225 193.11 25.3875 193.36 25.7125C193.538 25.9425 193.653 26.26 193.703 26.6575H190.73C190.798 26.31 190.908 26.0225 191.065 25.8025C191.34 25.4175 191.74 25.225 192.268 25.225Z"
      fill="#191B23" />
    <path
      d="M204.022 22.985C203.312 22.985 202.68 23.2 202.122 23.6275C201.75 23.915 201.475 24.2975 201.297 24.77L201.102 23.205H197.982C198.042 23.645 198.085 24.0925 198.102 24.545C198.12 24.9975 198.13 25.445 198.13 25.885V32.53H201.452V27.85C201.452 27.385 201.537 27.005 201.71 26.7125C201.882 26.4175 202.12 26.2025 202.425 26.06C202.73 25.92 203.105 25.85 203.545 25.85C204.035 25.85 204.542 25.9725 205.067 26.2175V23.1875C204.945 23.125 204.797 23.0775 204.627 23.04C204.457 23.0025 204.255 22.985 204.022 22.985Z"
      fill="#191B23" />
    <path
      d="M213.703 27.8875C213.268 27.435 212.555 27.0975 211.563 26.8775L210.003 26.53C209.66 26.445 209.428 26.3625 209.305 26.2825C209.183 26.2025 209.123 26.095 209.123 25.9625C209.123 25.7425 209.23 25.575 209.443 25.4575C209.658 25.3425 209.94 25.2825 210.298 25.2825C210.75 25.2825 211.235 25.3675 211.748 25.54C212.263 25.7125 212.763 25.9575 213.253 26.275L214.135 24.0725C213.585 23.73 212.985 23.4575 212.335 23.255C211.685 23.0525 211.02 22.9525 210.335 22.9525C209.515 22.9525 208.79 23.085 208.16 23.3475C207.53 23.61 207.038 23.975 206.683 24.44C206.328 24.905 206.15 25.4375 206.15 26.0375C206.15 26.785 206.36 27.3675 206.783 27.79C207.205 28.2125 207.893 28.5225 208.848 28.7175L210.353 29.0675C210.78 29.165 211.073 29.2625 211.225 29.36C211.378 29.4575 211.455 29.5925 211.455 29.765C211.455 29.96 211.35 30.115 211.143 30.225C210.935 30.335 210.64 30.39 210.26 30.39C209.66 30.39 209.04 30.295 208.398 30.105C207.755 29.915 207.183 29.65 206.683 29.3075L205.838 31.565C206.915 32.3125 208.383 32.685 210.243 32.685C211.528 32.685 212.535 32.4225 213.263 31.895C213.99 31.3675 214.355 30.645 214.355 29.7275C214.353 28.9525 214.135 28.34 213.703 27.8875Z"
      fill="#191B23" />
    <path
      d="M49.3478 7.49495C49.3353 7.37245 49.3128 7.25244 49.2953 7.12994C49.2753 6.98244 49.2578 6.83745 49.2278 6.68995C49.2003 6.54995 49.1628 6.41495 49.1278 6.27995C49.0953 6.15495 49.0678 6.02744 49.0303 5.90244C48.9903 5.76994 48.9403 5.63995 48.8928 5.50995C48.8478 5.38495 48.8078 5.25995 48.7553 5.13495C48.7053 5.01245 48.6453 4.89495 48.5878 4.77495C48.5278 4.64745 48.4728 4.51995 48.4053 4.39745C48.3428 4.28245 48.2753 4.17495 48.2078 4.06245C48.1353 3.93995 48.0678 3.81744 47.9878 3.69994C47.9053 3.57744 47.8128 3.45995 47.7253 3.34245C47.6503 3.24495 47.5828 3.14245 47.5053 3.04745C47.1578 2.62495 46.7703 2.23494 46.3453 1.88744C46.2503 1.80994 46.1478 1.73995 46.0503 1.66745C45.9328 1.57745 45.8153 1.48745 45.6928 1.40495C45.5753 1.32495 45.4528 1.25744 45.3303 1.18494C45.2178 1.11744 45.1103 1.04745 44.9953 0.98745C44.8728 0.92245 44.7453 0.864949 44.6203 0.807449C44.5003 0.749949 44.3828 0.689946 44.2603 0.639946C44.1378 0.589946 44.0128 0.547444 43.8878 0.504944C43.7553 0.457444 43.6278 0.407447 43.4928 0.367447C43.3678 0.329947 43.2403 0.302443 43.1153 0.269943C42.9778 0.234943 42.8428 0.197445 42.7053 0.169945C42.5603 0.139945 42.4128 0.124948 42.2653 0.102448C42.1428 0.0849475 42.0253 0.0624496 41.9003 0.0499496C41.6278 0.0224496 41.3553 0.00744629 41.0803 0.00744629H8.33527C3.74777 0.00744629 0.0302734 3.72745 0.0302734 8.31245C0.0302734 12.8999 3.75027 16.6174 8.33527 16.6174H21.0303L12.0528 25.5949C8.81027 28.8374 8.81027 34.0974 12.0528 37.3424C15.2978 40.5874 20.5553 40.5874 23.8003 37.3424L46.9578 14.1849C47.1503 13.9924 47.3353 13.7874 47.5078 13.5749C47.5853 13.4799 47.6553 13.3774 47.7278 13.2799C47.8153 13.1624 47.9078 13.0449 47.9903 12.9224C48.0703 12.8049 48.1378 12.6824 48.2103 12.5599C48.2778 12.4499 48.3453 12.3399 48.4078 12.2249C48.4753 12.0999 48.5303 11.9725 48.5903 11.8475C48.6478 11.7275 48.7053 11.61 48.7578 11.4874C48.8078 11.3649 48.8503 11.2374 48.8953 11.1124C48.9428 10.9824 48.9928 10.8524 49.0328 10.7199C49.0703 10.5949 49.0978 10.4674 49.1303 10.3424C49.1653 10.2049 49.2028 10.0724 49.2303 9.93245C49.2603 9.78745 49.2753 9.63995 49.2978 9.49245C49.3153 9.36995 49.3378 9.25245 49.3503 9.12745C49.3778 8.85495 49.3928 8.58245 49.3928 8.30745C49.3903 8.03995 49.3753 7.76745 49.3478 7.49495ZM43.9303 11.6074C42.1253 13.4124 39.2003 13.4124 37.3953 11.6074C35.5903 9.80244 35.5903 6.87745 37.3953 5.07245C39.2003 3.26745 42.1253 3.26745 43.9303 5.07245C45.7353 6.87745 45.7353 9.80244 43.9303 11.6074Z"
      fill="url(#paint0_linear_1060_4135)" />
    <path
      d="M68.0227 7.08756C67.5852 6.85006 67.0877 6.64756 66.5277 6.48506C65.9677 6.32256 65.3852 6.17006 64.7802 6.03006C64.2102 5.89006 63.7027 5.73506 63.2602 5.56756C62.8177 5.39756 62.4727 5.17506 62.2302 4.89506C61.9852 4.61506 61.8627 4.24756 61.8627 3.79506C61.8627 3.06006 62.1352 2.49006 62.6852 2.08256C63.2327 1.67506 63.9902 1.47006 64.9577 1.47006C65.6677 1.47006 66.3277 1.58756 66.9327 1.82006C67.5377 2.05256 68.1277 2.42006 68.6977 2.92006L69.2577 1.82006C68.9077 1.48256 68.5077 1.19756 68.0602 0.962563C67.6127 0.730063 67.1252 0.552561 66.6002 0.430061C66.0752 0.307561 65.5277 0.247559 64.9577 0.247559C64.0377 0.247559 63.2377 0.40006 62.5627 0.70256C61.8877 1.00506 61.3627 1.42756 60.9902 1.97006C60.6177 2.51256 60.4302 3.13756 60.4302 3.85006C60.4302 4.44506 60.5477 4.94006 60.7802 5.33506C61.0127 5.73256 61.3377 6.05756 61.7502 6.31506C62.1627 6.57256 62.6377 6.78506 63.1752 6.95256C63.7102 7.12256 64.2752 7.27006 64.8702 7.39756C65.4652 7.53756 65.9977 7.68506 66.4702 7.84256C66.9427 8.00006 67.3152 8.21006 67.5877 8.47256C67.8602 8.73506 67.9977 9.08256 67.9977 9.51256C67.9977 10.2226 67.7227 10.7751 67.1752 11.1651C66.6277 11.5551 65.8577 11.7501 64.8677 11.7501C64.0177 11.7501 63.2752 11.6401 62.6402 11.4176C62.0052 11.1951 61.3727 10.8226 60.7427 10.3001L60.2002 11.4001C60.5852 11.7501 61.0152 12.0451 61.4927 12.2826C61.9702 12.5226 62.4877 12.6951 63.0477 12.8076C63.6077 12.9201 64.2077 12.9726 64.8477 12.9726C65.7902 12.9726 66.6077 12.8276 67.2952 12.5351C67.9827 12.2451 68.5127 11.8351 68.8852 11.3126C69.2577 10.7876 69.4452 10.1701 69.4452 9.46006C69.4452 8.87756 69.3177 8.39756 69.0602 8.01756C68.8077 7.63506 68.4602 7.32756 68.0227 7.08756Z"
      fill="#191B23" />
    <path
      d="M77.2404 4.34508C76.6804 4.00258 76.0104 3.83008 75.2304 3.83008C74.4154 3.83008 73.6954 4.02258 73.0729 4.40758C72.4504 4.79258 71.9629 5.32758 71.6129 6.01508C71.2629 6.70258 71.0879 7.50008 71.0879 8.41008C71.0879 9.35508 71.2654 10.1676 71.6204 10.8476C71.9754 11.5301 72.4829 12.0501 73.1404 12.4126C73.7979 12.7751 74.5829 12.9551 75.4904 12.9551C76.1204 12.9551 76.7329 12.8501 77.3354 12.6401C77.9354 12.4301 78.4279 12.1451 78.8129 11.7826L78.3404 10.7526C77.9104 11.1026 77.4579 11.3626 76.9854 11.5301C76.5129 11.7001 76.0204 11.7826 75.5079 11.7826C74.5304 11.7826 73.7854 11.4926 73.2804 10.9076C72.7854 10.3376 72.5329 9.49758 72.5229 8.39008H78.9704V8.12758C78.9704 7.23008 78.8229 6.46258 78.5254 5.82008C78.2279 5.18008 77.8004 4.68758 77.2404 4.34508ZM73.2454 5.83008C73.7279 5.23008 74.3954 4.93008 75.2479 4.93008C76.0629 4.93008 76.6829 5.20508 77.1079 5.75258C77.4379 6.17758 77.6329 6.75007 77.6904 7.46507H72.5804C72.6829 6.80257 72.9029 6.25758 73.2454 5.83008Z"
      fill="#191B23" />
    <path
      d="M90.6224 3.82751C89.8299 3.82751 89.1524 4.03751 88.5874 4.45751C88.1899 4.75251 87.8899 5.12002 87.6799 5.55752C87.5174 5.09752 87.2849 4.73001 86.9799 4.45751C86.5074 4.03751 85.8474 3.82751 84.9974 3.82751C84.2874 3.82751 83.6724 4.01501 83.1524 4.38751C82.7399 4.68501 82.4274 5.08001 82.2099 5.57501L82.0774 4.03751H80.7324C80.7899 4.44501 80.8274 4.85751 80.8449 5.27001C80.8624 5.68251 80.8699 6.09502 80.8699 6.50252V12.83H82.2849V7.81252C82.2849 6.95002 82.4974 6.27002 82.9224 5.76752C83.3474 5.26752 83.9324 5.01501 84.6799 5.01501C85.3099 5.01501 85.7724 5.20501 86.0699 5.58251C86.3674 5.96251 86.5149 6.55752 86.5149 7.37502V12.8275H87.9299V7.81001C87.9299 6.94751 88.1424 6.26751 88.5674 5.76501C88.9924 5.26501 89.5724 5.01251 90.3074 5.01251C90.9374 5.01251 91.3974 5.20252 91.6874 5.58002C91.9774 5.96002 92.1249 6.55501 92.1249 7.37251V12.825H93.5399V7.30251C93.5399 6.13751 93.2949 5.26752 92.8049 4.69002C92.3174 4.11752 91.5899 3.82751 90.6224 3.82751Z"
      fill="#191B23" />
    <path
      d="M100.073 3.82751C99.3978 3.82751 98.7878 4.02251 98.2453 4.41251C97.8278 4.71251 97.5228 5.12751 97.3303 5.65251L97.1878 4.03502H95.8428C95.9003 4.44252 95.9378 4.85502 95.9553 5.26752C95.9728 5.68002 95.9803 6.09252 95.9803 6.50002V12.8275H97.3953V7.81001C97.3953 7.35501 97.4803 6.92251 97.6478 6.50751C97.8153 6.09502 98.0853 5.75252 98.4528 5.48502C98.8203 5.21752 99.3053 5.08251 99.9128 5.08251C100.263 5.08251 100.57 5.13002 100.84 5.22252L100.875 3.93002C100.758 3.89502 100.633 3.87002 100.5 3.85252C100.368 3.83752 100.225 3.82751 100.073 3.82751Z"
      fill="#191B23" />
    <path
      d="M108.253 9.00254C108.253 9.84254 108.013 10.5125 107.535 11.0125C107.058 11.5125 106.428 11.765 105.648 11.765C104.983 11.765 104.488 11.5775 104.163 11.205C103.835 10.8325 103.673 10.25 103.673 9.45753V4.04004H102.258V9.49254C102.258 10.635 102.523 11.4975 103.053 12.08C103.583 12.6625 104.373 12.955 105.42 12.955C106.13 12.955 106.763 12.775 107.318 12.4125C107.73 12.1425 108.053 11.78 108.288 11.3225V12.8325H109.668V4.04004H108.253V9.00254Z"
      fill="#191B23" />
    <path
      d="M116.398 8.05751L114.913 7.69001C114.435 7.57251 114.088 7.41001 113.873 7.20001C113.658 6.99001 113.55 6.70501 113.55 6.34251C113.55 5.92251 113.723 5.59001 114.065 5.34501C114.408 5.10001 114.895 4.97751 115.525 4.97751C116.003 4.97751 116.46 5.06251 116.898 5.23001C117.335 5.40001 117.763 5.65751 118.183 6.00751L118.655 4.97751C118.283 4.60501 117.823 4.32001 117.275 4.12001C116.728 3.92251 116.145 3.82251 115.528 3.82251C114.84 3.82251 114.245 3.93251 113.745 4.15501C113.245 4.37751 112.853 4.68251 112.575 5.07251C112.295 5.46251 112.155 5.91501 112.155 6.42751C112.155 7.01001 112.355 7.51001 112.758 7.93001C113.16 8.35001 113.728 8.64001 114.463 8.80501L115.948 9.15501C116.483 9.28251 116.868 9.45001 117.1 9.65251C117.333 9.85751 117.45 10.1325 117.45 10.4825C117.45 10.915 117.278 11.2425 116.935 11.47C116.59 11.6975 116.088 11.81 115.423 11.81C114.818 11.81 114.265 11.725 113.77 11.5575C113.275 11.3875 112.795 11.1225 112.328 10.7625L111.855 11.81C112.718 12.5675 113.888 12.945 115.368 12.945C116.428 12.945 117.268 12.7175 117.885 12.2625C118.503 11.8075 118.813 11.2025 118.813 10.445C118.813 9.82751 118.618 9.31751 118.228 8.91501C117.835 8.52251 117.225 8.23251 116.398 8.05751Z"
      fill="#191B23" />
    <path
      d="M125.453 3.82752C124.708 3.82752 124.048 4.01003 123.478 4.37753C123.058 4.64753 122.725 5.01252 122.48 5.47002V-0.0374756H121.065V12.8275H122.48V7.79253C122.48 6.94253 122.725 6.26502 123.215 5.76502C123.705 5.26502 124.358 5.01252 125.173 5.01252C125.873 5.01252 126.385 5.20252 126.71 5.58002C127.035 5.96002 127.2 6.55502 127.2 7.37252V12.825H128.615V7.30252C128.615 4.98752 127.56 3.82752 125.453 3.82752Z"
      fill="#191B23" />
  </g>
  <defs>
    <linearGradient id="paint0_linear_1060_4135" x1="-0.283576" y1="26.418" x2="46.9816" y2="3.42409"
      gradientUnits="userSpaceOnUse">
      <stop stop-color="#FFFBF9" stop-opacity="0" />
      <stop offset="0.5439" stop-color="#F9A273" stop-opacity="0.6561" />
      <stop offset="0.8291" stop-color="#F67732" />
    </linearGradient>
  </defs>
</svg>